<svg width="40" height="41" viewBox="0 0 40 41" fill="none" xmlns="http://www.w3.org/2000/svg">
<path d="M40 20.1278C40 13.6117 34.7097 8.25684 28.129 8.25684C25.2903 8.25684 22.7097 9.22458 20.6452 10.902C22.1935 12.3859 23.4194 14.2568 24 16.3859H23.0323C22.3871 14.5149 21.3548 12.8375 19.9355 11.4826C18.5161 12.8375 17.4839 14.5149 16.8387 16.3859H15.871C16.5161 14.2568 17.6774 12.3859 19.2258 10.902C17.1613 9.22458 14.6452 8.25684 11.8065 8.25684C5.29032 8.25684 0 13.6117 0 20.1278C0 26.6439 5.29032 31.9988 11.871 31.9988C14.7097 31.9988 17.2903 30.9665 19.2903 29.3536C17.7419 27.8697 16.5806 25.9988 15.9355 23.8697H16.9032C17.5484 25.7407 18.5806 27.4181 20 28.773C21.4194 27.4181 22.5161 25.7407 23.0968 23.8697H24.0645C23.4194 25.9988 22.2581 27.8697 20.7097 29.3536C22.7742 31.031 25.3548 31.9988 28.1935 31.9988C34.7097 31.9988 40 26.6439 40 20.1278Z" fill="#858FA4"/>
<path d="M31.2891 22.9027L32.1278 18.5156H33.16L33.2891 18.9672C33.4826 18.7737 33.8052 18.5156 34.4503 18.5156L34.1278 19.6769C33.8052 19.6769 33.2891 19.6124 32.902 20.9027L32.5149 22.9027H31.2891Z" fill="#1A1A25"/>
<path d="M15.481 17.4189H16.6423L16.3842 18.5802H17.0294L16.8358 19.4835H16.2552L15.9326 21.2254C15.8681 21.548 15.9326 21.8706 16.5777 21.7415L16.4487 22.7093C16.1906 22.9028 15.8681 22.9028 15.5455 22.9028C15.2874 22.9028 14.3842 22.7093 14.5777 21.548L15.481 17.4189Z" fill="#1A1A25"/>
<path d="M20.6447 20.9672C20.7737 20.2576 21.0963 18.5156 19.0318 18.5156C17.0963 18.5156 16.8382 20.4511 16.8382 20.7092C16.7737 20.9672 16.7737 22.9027 18.8382 22.9027C19.3544 22.9027 20.064 22.8382 20.3866 22.7092L20.5802 21.8059C20.3866 21.8705 19.7415 21.935 19.2253 21.935C18.7737 21.935 17.9995 21.935 18.1286 20.9672H20.6447Z" fill="#1A1A25"/>
<path d="M14.3235 19.5479L14.5815 18.6447C14.0009 18.4512 13.5493 18.4512 13.4202 18.4512C13.2267 18.4512 11.8073 18.4512 11.6138 19.4834C11.4202 20.3221 11.7428 20.6447 12.0009 20.7738C12.4525 20.9673 12.7106 21.1608 12.9686 21.2899C13.2912 21.4189 13.2267 21.935 12.8396 21.935C12.646 21.935 11.8718 21.9996 11.2912 21.806L11.0977 22.7092C11.6783 22.8383 12.0654 22.8383 12.517 22.8383C12.8396 22.8383 14.2589 22.9028 14.4525 21.6125C14.5815 20.9673 14.2589 20.7092 14.0654 20.5157C13.8073 20.3867 13.4848 20.1286 13.2267 20.0641C12.9686 19.935 12.7751 19.5479 13.2267 19.4189C13.4202 19.4834 14.0009 19.4834 14.3235 19.5479Z" fill="#1A1A25"/>
<path d="M6.57964 22.9026L7.61189 17.6123H5.6119L4.19254 20.8381L3.93448 17.6123H2.06351L1.03125 22.9026H2.19254L2.96673 19.0962L3.28931 22.9026H4.38609L6.06351 19.1607L5.35383 22.9026H6.57964Z" fill="#1A1A25"/>
<path d="M7.93298 18.644L7.73943 19.6117C8.06201 19.6117 8.8362 19.4827 9.2233 19.4827C9.61039 19.4827 10.1265 19.4182 9.93297 20.0634C9.61039 20.0634 7.48136 19.7408 7.15878 21.6118C7.02975 22.515 7.80394 22.9666 8.38459 22.9666C8.96523 22.9666 9.15878 22.8376 9.35233 22.7085L9.48136 22.9666H10.5781L11.0297 20.5795C11.1588 19.9988 11.3523 18.5795 9.35233 18.5795C9.09427 18.515 8.70717 18.515 7.93298 18.644Z" fill="#1A1A25"/>
<path d="M27.226 18.8379C26.9035 18.6443 26.7099 18.6443 26.3228 18.6443C25.9357 18.6443 25.0325 19.0314 24.9035 20.0637C24.7099 21.354 25.5486 21.9346 26.7744 21.5475L27.097 22.6443C26.7099 22.8379 26.3228 22.9024 25.6777 22.9024C24.4519 22.9024 23.097 21.8056 23.6777 19.5475C24.1293 17.9346 25.5486 17.2895 26.3873 17.354C27.3551 17.4185 27.7422 17.7411 28.0002 18.0637L27.226 18.8379Z" fill="#1A1A25"/>
<path d="M37.3537 19.0309C37.0956 18.8374 36.9666 18.5148 36.4505 18.5148C35.8053 18.5148 34.7731 18.3858 34.1924 20.3858C33.8053 21.7406 34.5795 22.9019 35.4182 22.9019C35.8053 22.9019 36.1924 22.7084 36.4505 22.5793L36.5795 22.9019H37.8698L38.9021 17.3535H37.6763L37.3537 19.0309Z" fill="#1A1A25"/>
<path d="M28.0658 18.644L27.8722 19.6117C28.1948 19.6117 28.969 19.4827 29.3561 19.4827C29.7432 19.4827 30.1948 19.4182 30.0658 20.0634C29.7432 20.0634 27.6142 19.7408 27.2916 21.6118C27.1626 22.515 27.9368 22.9666 28.5174 22.9666C29.098 22.9666 29.2916 22.8376 29.4851 22.7085L29.6142 22.9666H30.7109L31.1626 20.5795C31.2916 19.9988 31.4851 18.5795 29.4851 18.5795C29.2916 18.515 28.84 18.515 28.0658 18.644Z" fill="#1A1A25"/>
<path d="M18.1289 20.1277H19.6128C19.6773 19.6761 19.5483 19.3535 19.0966 19.3535C18.5805 19.3535 18.2579 19.6116 18.1289 20.1277Z" fill="#858FA4"/>
<path d="M9.74253 20.9668C9.54899 20.9668 9.09737 20.8378 8.71028 21.0959C8.32318 21.3539 8.19415 21.8055 8.64576 21.9346C9.03286 22.0636 9.54899 21.8055 9.67802 21.4184L9.74253 20.9668Z" fill="#858FA4"/>
<path d="M36.967 20.8379C37.0961 20.4508 37.0316 19.9346 36.9025 19.7411C36.5154 19.225 35.6767 19.6121 35.4187 20.5798C35.2251 21.2249 35.6122 21.6766 35.9993 21.6766C36.4509 21.6766 36.709 21.354 36.967 20.8379Z" fill="#858FA4"/>
<path d="M29.9339 20.9668C29.7404 20.9668 29.2888 20.8378 28.9017 21.0959C28.5146 21.3539 28.3856 21.8055 28.8372 21.9346C29.2243 22.0636 29.8049 21.8055 29.8694 21.4184L29.9339 20.9668Z" fill="#858FA4"/>
<path d="M20.6445 22.9017L21.4832 18.5791H22.5155L22.6445 19.0307C22.8381 18.8372 23.1607 18.5791 23.8058 18.5791L23.4832 19.7404C23.2252 19.7404 22.6445 19.6759 22.2574 20.9662L21.8703 22.9662H20.6445" fill="#1A1A25"/>
<path d="M11.8703 8.25684C6.64453 8.25684 2.19292 11.6762 0.644531 16.3859H15.9994C16.6445 14.2568 17.8058 12.3859 19.3542 10.902C17.2252 9.28909 14.6445 8.25684 11.8703 8.25684Z" fill="#858FA4"/>
<path d="M19.9991 11.5469C18.5798 12.9017 17.5475 14.5146 16.9023 16.4501H23.0959C22.4507 14.5791 21.4185 12.9017 19.9991 11.5469Z" fill="#858FA4"/>
<path d="M28.1284 8.25684C25.2897 8.25684 22.709 9.22458 20.6445 10.902C22.1929 12.3859 23.3542 14.2568 23.9994 16.3859H39.3542C37.8703 11.6762 33.4187 8.25684 28.1284 8.25684Z" fill="#858FA4"/>
</svg>
