<svg width="55" height="21" viewBox="0 0 55 21" fill="none" xmlns="http://www.w3.org/2000/svg">
<path d="M10.5428 4.17093C10.3503 3.78468 10.0457 3.46611 9.66761 3.22689C9.27319 2.98533 8.80759 2.81613 8.27547 2.71577C7.73402 2.61775 7.10855 2.57341 6.38389 2.56641L3.03831 2.56874C2.69057 2.57341 2.34983 2.84413 2.26814 3.18021L0.017144 12.9847C-0.0645408 13.3161 0.153674 13.5939 0.501418 13.5939H2.10361C2.45135 13.5939 2.79559 13.3243 2.87261 12.9847L3.42223 10.6042C3.49575 10.2728 3.83882 9.99622 4.19007 9.99622H4.64867C6.60794 9.99389 8.12494 9.59363 9.21485 8.79195C10.3106 7.98911 10.8509 6.92837 10.8509 5.61441C10.8497 5.03912 10.7552 4.55601 10.5428 4.17093ZM7.08754 7.37414C6.60327 7.72888 5.92995 7.90626 5.06176 7.90626H4.66967C4.32076 7.90626 4.10722 7.63086 4.18307 7.29479L4.66501 5.21299C4.73269 4.87925 5.08393 4.60269 5.42818 4.60502L5.95329 4.60152C6.56593 4.60152 7.03386 4.70771 7.3466 4.91309C7.65584 5.11614 7.81104 5.43938 7.8087 5.86764C7.81804 6.51878 7.56948 7.01939 7.08754 7.37414Z" fill="#858FA4"/>
<path d="M18.2683 5.57264C17.6638 5.23189 16.7093 5.06152 15.4046 5.06152C14.7593 5.06152 14.1164 5.1117 13.4664 5.21206C12.9868 5.28557 12.9401 5.29957 12.6449 5.36376C12.0357 5.49679 11.94 6.10475 11.94 6.10475L11.744 6.9111C11.6331 7.42571 11.9295 7.40588 12.0532 7.3627C12.3193 7.28335 12.4675 7.20166 13.0113 7.0803C13.5306 6.96244 14.0778 6.87376 14.5119 6.87959C15.1526 6.87959 15.6427 6.94727 15.9694 7.08497C16.2915 7.225 16.4525 7.46539 16.4525 7.81313L16.4245 8.03952L16.1935 8.18188C15.2844 8.23906 14.6275 8.32308 13.8305 8.4386C13.051 8.54713 12.3671 8.73734 11.7988 8.99756C11.1885 9.26595 10.7358 9.62654 10.4195 10.0851C10.1138 10.5461 9.96094 11.105 9.96094 11.7608C9.96094 12.3781 10.1827 12.8881 10.6132 13.2825C11.0462 13.6699 11.618 13.859 12.3018 13.859C12.7347 13.8566 13.0696 13.8228 13.3077 13.7656L14.0837 13.4984L14.7407 13.1343L15.3451 12.7352L15.3533 12.7469L15.2926 13.0036L15.2891 13.0141V13.0165C15.2238 13.3292 15.4128 13.5859 15.7174 13.6163L15.7232 13.6233H15.7512H16.98H17.211L17.232 13.6139C17.5518 13.5766 17.8517 13.3199 17.9217 13.0141L19.0898 7.95783L19.1505 7.54591L19.1785 7.15966C19.1831 6.44316 18.8739 5.91221 18.2683 5.57264ZM15.6847 11.2579L15.435 11.587L14.8048 11.9125C14.5084 12.0327 14.2272 12.0934 13.967 12.0934C13.5726 12.0934 13.2633 12.0362 13.0545 11.9195L12.7452 11.3186C12.7452 10.993 12.8199 10.7351 12.9798 10.5367L13.6589 10.0746C13.9495 9.97661 14.3042 9.89376 14.715 9.83658C15.0814 9.79107 15.8049 9.70822 15.8994 9.70589L16.0103 9.90076C15.9881 10.0116 15.7827 10.8705 15.6847 11.2579Z" fill="#858FA4"/>
<path d="M47.3698 5.57966C46.7619 5.23892 45.8085 5.06738 44.5074 5.06738C43.8621 5.06738 43.2179 5.11756 42.5703 5.22142C42.0895 5.29143 42.0417 5.3066 41.7453 5.36962C41.1373 5.50148 41.0428 6.11178 41.0428 6.11178L40.8467 6.91696C40.737 7.43157 41.0264 7.40823 41.1618 7.36856C41.429 7.28921 41.5726 7.21102 42.1117 7.085C42.6286 6.9683 43.1806 6.88195 43.6158 6.88429C44.2541 6.88429 44.7443 6.95313 45.0698 7.09083C45.3942 7.23086 45.5529 7.47358 45.5529 7.81782L45.5284 8.04304L45.2997 8.18891C44.3813 8.24375 43.7232 8.32777 42.9344 8.4433C42.1572 8.55182 41.471 8.74086 40.9016 9.00225C40.2936 9.27181 39.835 9.63239 39.5223 10.0922C39.213 10.5531 39.0625 11.1109 39.0625 11.7609C39.0625 12.3828 39.2819 12.8928 39.7183 13.2849C40.1536 13.6711 40.7195 13.8648 41.4034 13.8648C41.8339 13.8602 42.1689 13.8322 42.4081 13.7703L43.1817 13.5066L43.8446 13.1425L44.4444 12.7387L44.4549 12.7516L44.4 13.0106L44.3942 13.0153L44.3965 13.02C44.3242 13.3327 44.5144 13.5918 44.8224 13.6198L44.8248 13.6256H44.8528C45.0547 13.6256 45.7525 13.6256 46.0851 13.6256H46.3114L46.3359 13.6174C46.6522 13.5789 46.9509 13.3222 47.0174 13.013L48.189 7.96369L48.2509 7.54943L48.2847 7.16201C48.2859 6.44785 47.9801 5.91924 47.3698 5.57966ZM44.7921 11.2649L44.5319 11.5975L43.9076 11.9207C43.6112 12.0398 43.3288 12.1016 43.0732 12.1016C42.666 12.1016 42.3649 12.0433 42.1619 11.9266L41.8491 11.3279C41.8491 11.0012 41.925 10.7456 42.0778 10.5438C42.233 10.3536 42.4699 10.1972 42.764 10.0828C43.0511 9.9848 43.4058 9.90545 43.8189 9.84594C44.183 9.80043 44.9041 9.71524 44.9975 9.71408L45.1107 9.90895C45.0943 10.0198 44.8878 10.8752 44.7921 11.2649Z" fill="#858FA4"/>
<path d="M39.6413 4.20725C39.4406 3.81866 39.1396 3.50476 38.7591 3.25971C38.3694 3.01699 37.9073 2.84662 37.367 2.74859C36.8361 2.65407 36.2024 2.60273 35.4824 2.60156L32.1322 2.6039C31.7833 2.60973 31.4484 2.88046 31.3678 3.21303L29.1145 13.0222C29.0328 13.3548 29.2569 13.6302 29.5976 13.6302L31.2021 13.6278C31.5429 13.6302 31.8918 13.3571 31.9723 13.021L32.5149 10.6393C32.5943 10.3079 32.9385 10.029 33.2851 10.0314H33.7437C35.7053 10.0314 37.2258 9.62762 38.3204 8.82827C39.4021 8.01959 39.9494 6.96119 39.9494 5.64607C39.9436 5.07311 39.8444 4.58884 39.6413 4.20725ZM36.1861 7.41513C35.703 7.76287 35.0285 7.94024 34.165 7.94024H33.7659C33.4216 7.94374 33.1987 7.66368 33.2758 7.32994L33.7612 5.25165C33.8324 4.91908 34.1801 4.64018 34.5267 4.64368L35.046 4.64018C35.6621 4.64368 36.1242 4.7452 36.4393 4.95058C36.7532 5.15596 36.9014 5.47803 36.9049 5.90513C36.9084 6.55627 36.6668 7.05805 36.1861 7.41513Z" fill="#858FA4"/>
<path d="M53.3779 3.29165C53.4514 2.95674 53.2414 2.68484 52.8971 2.68951H51.4618C51.1677 2.68951 50.9028 2.90773 50.7733 3.17612L50.694 3.29981L50.6216 3.61722L48.6157 12.7356L48.5503 13.0156L48.5527 13.0226C48.4861 13.3225 48.6705 13.5489 48.9553 13.5921L48.9798 13.6259H50.4699C50.7617 13.6259 51.0359 13.4042 51.1607 13.1312L51.2378 13.0145L53.3826 3.29281L53.3779 3.29165Z" fill="#858FA4"/>
<path d="M29.1544 5.18373C28.7752 5.18839 27.2337 5.18373 27.2337 5.18373C26.8883 5.18373 26.4448 5.46262 26.2255 5.7952C26.2255 5.7952 23.9313 9.7324 23.7084 10.128L23.4423 10.1245L22.7282 5.82203C22.6488 5.48362 22.2953 5.19423 21.8553 5.19423L20.42 5.19656C20.0746 5.19656 19.8622 5.47196 19.9404 5.80803C19.9404 5.80803 21.0303 12.0102 21.2485 13.4701C21.3501 14.2752 21.2357 14.4188 21.2357 14.4188L19.8167 16.8903C19.6067 17.2264 19.7199 17.5006 20.0641 17.5006L21.7235 17.4983C22.0689 17.4983 22.5228 17.2264 22.7282 16.8891L29.1113 6.09276C29.1113 6.09393 29.7251 5.17089 29.1544 5.18373Z" fill="#858FA4"/>
</svg>
