<svg width="30" height="33" viewBox="0 0 30 33" fill="none" xmlns="http://www.w3.org/2000/svg">
<path d="M22.1464 15.8803L19.8047 17.9961L21.9191 20.3364L24.2609 18.2206L22.1464 15.8803Z" fill="#858FA4"/>
<path d="M17.4823 17.7846L14.3594 20.5957L17.1719 23.7201L20.2948 20.909L17.4823 17.7846Z" fill="#858FA4"/>
<path d="M26.3724 15.136L24.8125 16.542L26.2184 18.1019L27.7783 16.6959L26.3724 15.136Z" fill="#858FA4"/>
<path d="M17.9847 6.22884L15.6406 8.33887L17.7506 10.6829L20.0947 8.57289L17.9847 6.22884Z" fill="#858FA4"/>
<path d="M24.3731 10.4744L22.8164 11.8809L24.2242 13.4391L25.781 12.0326L24.3731 10.4744Z" fill="#858FA4"/>
<path d="M15.2665 12.3708L12.1406 15.1846L14.9531 18.309L18.079 15.4952L15.2665 12.3708Z" fill="#858FA4"/>
<path d="M13.0307 7.0469L9.90625 9.85938L12.7187 12.9838L15.8431 10.1713L13.0307 7.0469Z" fill="#858FA4"/>
<path d="M20.1351 10.9413L17.7969 13.0518L19.9114 15.3945L22.2496 13.284L20.1351 10.9413Z" fill="#858FA4"/>
<path d="M22.3685 5.84112L20.8086 7.24707L22.2145 8.80695L23.7744 7.401L22.3685 5.84112Z" fill="#858FA4"/>
<path d="M24.2103 20.6163L21.8672 22.7275L23.9798 25.0721L26.3229 22.9608L24.2103 20.6163Z" fill="#858FA4"/>
<path d="M20.1023 23.2718L17.0483 26.0878L11.8923 20.3498L13.3262 19.0878L9.71625 15.0458L11.1582 13.7818L7.49425 9.74384L13.2123 4.59583L15.0283 6.58384L18.0943 3.84784L19.9063 5.72583L21.1143 4.64383C20.8443 4.48783 20.5742 4.34383 20.3002 4.21383C18.5582 3.36183 16.6023 2.88184 14.5423 2.88184C7.30825 2.88184 1.40625 8.78183 1.40625 16.0178C1.40625 23.2518 7.30825 29.1518 14.5423 29.1518C16.8923 29.1518 19.1063 28.5298 21.0163 27.4398C21.6463 27.0838 22.2202 26.6978 22.7442 26.2918L20.1023 23.2718Z" fill="#858FA4"/>
</svg>
