<svg width="40" height="41" viewBox="0 0 40 41" fill="none" xmlns="http://www.w3.org/2000/svg">
<path d="M16.0172 14.1758L13.9844 26.1054H17.2356L19.2702 14.1758H16.0172Z" fill="#858FA4"/>
<path d="M11.2582 14.189L8.07389 22.3247L7.73438 21.0963C7.10637 19.6161 5.32354 17.4904 3.23047 16.1508L6.14221 26.0994L9.58244 26.0935L14.7026 14.1865L11.2582 14.189Z" fill="#858FA4"/>
<path d="M6.49914 15.0424C6.31016 14.3157 5.76243 14.0992 5.08258 14.0732H0.0418113L0 14.3107C3.92273 15.2624 6.51838 17.5553 7.59543 20.3123L6.49914 15.0424Z" fill="#858FA4"/>
<path d="M25.859 16.4627C26.9227 16.4459 27.6937 16.6784 28.2924 16.9192L28.5859 17.0572L29.0258 14.4716C28.3819 14.2299 27.3726 13.9707 26.1132 13.9707C22.9004 13.9707 20.6359 15.5888 20.6184 17.9077C20.5975 19.6211 22.2314 20.5777 23.4657 21.1489C24.7326 21.7342 25.1574 22.1063 25.1515 22.629C25.1415 23.4276 24.1414 23.7938 23.2073 23.7938C21.9053 23.7938 21.2138 23.6141 20.1459 23.1692L19.7269 22.9785L19.2695 25.6486C20.0305 25.9822 21.4345 26.2691 22.8921 26.2841C26.3097 26.2841 28.5307 24.6853 28.5541 22.2075C28.5684 20.852 27.7012 19.8176 25.8222 18.9688C24.6849 18.4152 23.9892 18.0473 23.9959 17.4887C23.9959 16.9928 24.5863 16.4627 25.859 16.4627Z" fill="#858FA4"/>
<path d="M37.3672 14.1895H34.8551C34.0749 14.1895 33.4946 14.4019 33.1517 15.1795L28.3242 26.1123H31.7385C31.7385 26.1123 32.2954 24.6423 32.4217 24.3203C32.7955 24.3203 36.1128 24.3253 36.5853 24.3253C36.6823 24.7418 36.9817 26.1123 36.9817 26.1123H39.9979L37.3672 14.1895ZM33.3575 21.8785C33.6251 21.1937 34.6528 18.5445 34.6528 18.5445C34.6352 18.5771 34.9179 17.8546 35.0859 17.4056L35.305 18.4341C35.305 18.4341 35.928 21.2823 36.0585 21.8785H33.3575Z" fill="#858FA4"/>
</svg>
